<?xml version="1.0" encoding="UTF-8"?>
<!-- Generator: visioncortex VTracer 0.6.12 -->
<svg version="1.1" xmlns="http://www.w3.org/2000/svg" width="64" height="182" viewBox="0 0 64 182" preserveAspectRatio="xMidYMid meet">
<path d="M0 0 C5 5.46 6.66 10.33 7.94 17.55 C8.14 18.56 8.34 19.58 8.54 20.63 C12.04 38.91 13.34 57.08 13.32 75.67 C13.31 76.47 13.31 77.27 13.31 78.09 C13.28 91.12 13.04 104.15 12.55 117.17 C12.48 119.08 12.41 120.99 12.36 122.9 C12.28 125.58 12.17 128.25 12.05 130.93 C12.04 131.72 12.02 132.52 12 133.33 C11.79 137.2 11.47 139.61 8.71 142.44 C4.38 145.88 1.61 146.68 -3.87 146.3 C-9.31 145.61 -13.37 143.8 -16.87 139.49 C-17.32 137.06 -17.32 137.06 -17.43 134.17 C-17.48 133.09 -17.53 132.01 -17.59 130.9 C-17.62 130.32 -17.64 129.75 -17.66 129.16 C-18.73 105.8 -24.72 83.52 -30.48 60.97 C-30.7 60.12 -30.91 59.27 -31.13 58.4 C-31.54 56.81 -31.95 55.22 -32.36 53.63 C-34.51 45.21 -35.11 37.29 -35.18 28.61 C-35.21 27.47 -35.24 26.32 -35.27 25.14 C-35.33 16.97 -34.16 11.73 -29.16 5.28 C-21.54 -2.08 -9.59 -7.75 0 0 Z " fill="#E08A44" transform="translate(42.871826171875,27.513671875)"/>
<path d="M0 0 C5 5.46 6.66 10.33 7.94 17.55 C8.14 18.56 8.34 19.58 8.54 20.63 C12.04 38.91 13.34 57.08 13.32 75.67 C13.31 76.47 13.31 77.27 13.31 78.09 C13.28 91.12 13.04 104.15 12.55 117.17 C12.48 119.08 12.41 120.99 12.36 122.9 C12.28 125.58 12.17 128.25 12.05 130.93 C12.04 131.72 12.02 132.52 12 133.33 C11.79 137.2 11.47 139.61 8.71 142.44 C4.38 145.88 1.61 146.68 -3.87 146.3 C-9.31 145.61 -13.37 143.8 -16.87 139.49 C-17.32 137.06 -17.32 137.06 -17.43 134.17 C-17.48 133.09 -17.53 132.01 -17.59 130.9 C-17.62 130.32 -17.64 129.75 -17.66 129.16 C-18.73 105.8 -24.72 83.52 -30.48 60.97 C-30.7 60.12 -30.91 59.27 -31.13 58.4 C-31.54 56.81 -31.95 55.22 -32.36 53.63 C-34.51 45.21 -35.11 37.29 -35.18 28.61 C-35.21 27.47 -35.24 26.32 -35.27 25.14 C-35.33 16.97 -34.16 11.73 -29.16 5.28 C-21.54 -2.08 -9.59 -7.75 0 0 Z M-20.87 1.49 C-26.1 9.59 -26.69 18.24 -26.5 27.61 C-26.49 28.25 -26.49 28.89 -26.48 29.55 C-26.34 45.17 -23.92 60.67 -18.87 75.49 C-18.35 77.82 -17.86 80.13 -17.43 82.49 C-17.31 83.17 -17.18 83.86 -17.06 84.56 C-14.43 99.34 -12.47 113.95 -12.43 128.99 C-12.29 136.57 -12.29 136.57 -10.24 139.61 C-7.13 142.08 -5.31 142.06 -1.37 141.92 C-0.25 141.9 0.88 141.88 2.03 141.86 C4.97 141.5 6.58 140.87 9.13 139.49 C10.7 118.68 11.37 97.89 11.43 77.02 C11.44 75.27 11.45 73.51 11.47 71.75 C11.87 16.15 11.87 16.15 1.07 3.05 C-0.41 1.62 -0.41 1.62 -1.87 0.49 C-2.32 0.11 -2.76 -0.27 -3.22 -0.65 C-5.59 -1.89 -7.59 -1.82 -10.25 -1.83 C-11.18 -1.84 -12.12 -1.86 -13.08 -1.88 C-16.45 -1.44 -18.13 -0.5 -20.87 1.49 Z " fill="#B76830" transform="translate(42.871826171875,27.513671875)"/>
<path d="M0 0 C1.38 1.38 1.38 1.38 3.32 3.75 C2.99 4.41 2.66 5.07 2.32 5.75 C1.94 5.32 1.56 4.88 1.17 4.44 C-2.51 0.71 -5.05 -0.69 -10.37 -0.75 C-13.95 -0.63 -16.73 -0.35 -19.68 1.75 C-20.95 4.13 -20.95 4.13 -21.93 6.88 C-22.27 7.79 -22.6 8.7 -22.95 9.63 C-23.19 10.33 -23.43 11.03 -23.68 11.75 C-24.34 11.09 -25 10.43 -25.68 9.75 C-26.67 12.06 -27.66 14.37 -28.68 16.75 C-29.34 16.75 -30 16.75 -30.68 16.75 C-34.74 37.6 -29.39 58.55 -23.36 78.43 C-22.36 81.84 -21.52 85.29 -20.68 88.75 C-20.02 88.75 -19.36 88.75 -18.68 88.75 C-18.7 89 -18.7 89 -18.75 90.26 C-18.9 96.13 -18.19 101.66 -17.22 107.44 C-16.34 112.9 -15.65 118.24 -15.51 123.77 C-15.48 124.62 -15.46 125.48 -15.44 126.37 C-15.39 128.14 -15.36 129.91 -15.34 131.68 C-15.13 138.13 -15.13 138.13 -12.83 141.3 C-9.17 143.78 -5.81 143.99 -1.5 144.31 C-0.41 144.4 0.68 144.48 1.8 144.57 C2.63 144.63 3.46 144.69 4.32 144.75 C2.45 146.33 1.49 146.74 -0.99 146.83 C-7.44 146.16 -12.42 145 -16.68 139.75 C-17.13 137.33 -17.13 137.33 -17.24 134.43 C-17.29 133.35 -17.35 132.27 -17.4 131.16 C-17.43 130.59 -17.45 130.01 -17.48 129.42 C-18.54 106.07 -24.53 83.79 -30.29 61.23 C-30.51 60.38 -30.72 59.54 -30.95 58.67 C-31.35 57.07 -31.76 55.48 -32.17 53.89 C-34.32 45.47 -34.92 37.56 -35 28.88 C-35.03 27.73 -35.05 26.58 -35.08 25.4 C-35.15 17.23 -33.97 11.99 -28.97 5.54 C-21.37 -1.79 -9.78 -7.26 0 0 Z " fill="#3C2C13" transform="translate(42.68359375,27.25)"/>
<path d="M0 0 C0.33 0.16 0.33 0.16 2 1 C2.65 2.99 2.65 2.99 3.22 5.6 C3.43 6.56 3.64 7.52 3.85 8.5 C4.07 9.53 4.28 10.56 4.5 11.62 C4.72 12.67 4.94 13.72 5.17 14.8 C8.98 33.17 10.22 51.46 10.19 70.19 C10.19 70.98 10.19 71.78 10.18 72.6 C10.15 85.64 9.91 98.66 9.42 111.69 C9.35 113.6 9.29 115.5 9.23 117.41 C9.15 120.09 9.04 122.77 8.93 125.44 C8.91 126.24 8.89 127.03 8.87 127.85 C8.66 131.81 8.3 134.15 5.44 137.03 C4.64 137.68 3.83 138.33 3 139 C2.34 138.67 1.68 138.34 1 138 C1.99 137.67 2.98 137.34 4 137 C10.46 117.61 7.24 91.9 7.3 71.54 C7.31 69.78 7.33 68.02 7.34 66.27 C7.5 43.66 5.12 22.02 0 0 Z " fill="#362D0A" transform="translate(46,33)"/>
<path d="M0 0 C1.38 1.38 1.38 1.38 3.32 3.75 C2.99 4.41 2.66 5.07 2.32 5.75 C1.94 5.32 1.56 4.88 1.17 4.44 C-2.51 0.71 -5.05 -0.69 -10.37 -0.75 C-13.95 -0.63 -16.73 -0.35 -19.68 1.75 C-20.95 4.13 -20.95 4.13 -21.93 6.88 C-22.27 7.79 -22.6 8.7 -22.95 9.63 C-23.19 10.33 -23.43 11.03 -23.68 11.75 C-24.34 11.09 -25 10.43 -25.68 9.75 C-26.67 12.06 -27.66 14.37 -28.68 16.75 C-29.34 16.75 -30 16.75 -30.68 16.75 C-31.01 18.73 -31.34 20.71 -31.68 22.75 C-32.01 22.75 -32.34 22.75 -32.68 22.75 C-33.1 16.95 -32.75 11.82 -29.68 6.75 C-24.9 1.58 -19.84 -2.38 -12.68 -3.21 C-8.22 -3.3 -3.64 -2.71 0 0 Z " fill="#784C1F" transform="translate(42.68359375,27.25)"/>
<path d="M0 0 C0.66 0 1.32 0 2 0 C1.98 5.04 1.93 10.07 1.85 15.11 C1.82 16.82 1.81 18.53 1.8 20.24 C1.8 22.71 1.75 25.17 1.71 27.64 C1.71 28.4 1.71 29.16 1.72 29.94 C1.61 33.89 1.3 36.16 -1.54 39.02 C-2.35 39.68 -3.17 40.33 -4 41 C-4.66 40.67 -5.32 40.34 -6 40 C-5.51 39.84 -5.51 39.84 -3 39 C-2.17 36.5 -1.84 34.91 -1.7 32.35 C-1.68 31.99 -1.68 31.99 -1.58 30.17 C-1.54 29.4 -1.5 28.63 -1.46 27.83 C-1.42 27.04 -1.38 26.24 -1.33 25.42 C-1.2 22.89 -1.07 20.35 -0.94 17.81 C-0.85 16.09 -0.75 14.37 -0.66 12.65 C-0.44 8.43 -0.22 4.22 0 0 Z " fill="#48340E" transform="translate(53,131)"/>
<path d="M0 0 C0.25 0.33 0.25 0.33 1.52 1.98 C4.95 4.77 7.47 4.46 11.75 4.25 C12.45 4.23 13.14 4.21 13.86 4.2 C15.58 4.15 17.29 4.08 19 4 C19 4.66 19 5.32 19 6 C16.22 8.41 13.71 8.3 10.12 8.31 C9.1 8.33 8.07 8.35 7.01 8.36 C3.61 7.95 1.74 7.02 -1 5 C-1.33 4.34 -1.66 3.68 -2 3 C-1.34 3 -0.68 3 0 3 C0 2.01 0 1.02 0 0 Z " fill="#BC6531" transform="translate(31,164)"/>
<path d="" fill="#171608" transform="translate(0,0)"/>
<path d="" fill="#0B0A06" transform="translate(0,0)"/>
<path d="" fill="#121110" transform="translate(0,0)"/>
</svg>
